<svg width="127" height="29" viewBox="0 0 127 29" fill="none" xmlns="http://www.w3.org/2000/svg">
<path d="M1.84375 0.59375C2.51042 0.614583 3.09375 0.625 3.59375 0.625C4.09375 0.604167 4.5 0.59375 4.8125 0.59375H5.71875C5.94792 0.572917 6.22917 0.5625 6.5625 0.5625C6.85417 0.5625 7.20833 0.5625 7.625 0.5625C8.04167 0.5625 8.52083 0.572917 9.0625 0.59375C9.22917 1.17708 9.41667 1.75 9.625 2.3125C9.85417 2.85417 10.0521 3.34375 10.2188 3.78125C10.4271 4.30208 10.6354 4.79167 10.8438 5.25C11.0521 5.70833 11.3021 6.26042 11.5938 6.90625C11.8438 7.44792 12.1458 8.11458 12.5 8.90625C12.8542 9.67708 13.2708 10.5625 13.75 11.5625C13.9792 10.9167 14.1875 10.3229 14.375 9.78125C14.5833 9.23958 14.7604 8.77083 14.9062 8.375C15.0729 7.91667 15.2083 7.5 15.3125 7.125C15.4167 6.75 15.5312 6.29167 15.6562 5.75C15.7604 5.29167 15.875 4.73958 16 4.09375C16.1458 3.44792 16.2917 2.69792 16.4375 1.84375C17.0417 1.84375 17.5833 1.84375 18.0625 1.84375C18.5417 1.84375 18.9583 1.83333 19.3125 1.8125C19.7083 1.8125 20.0625 1.80208 20.375 1.78125C20.7083 1.78125 21.1562 1.76042 21.7188 1.71875C22.1979 1.67708 22.8333 1.64583 23.625 1.625C24.4375 1.58333 25.4375 1.53125 26.625 1.46875C26.1875 1.78125 25.8333 2.09375 25.5625 2.40625C25.3125 2.69792 25.1146 2.95833 24.9688 3.1875C24.8021 3.45833 24.6979 3.71875 24.6562 3.96875C24.6146 4.17708 24.5729 4.65625 24.5312 5.40625C24.5104 6.15625 24.4792 7.05208 24.4375 8.09375C24.4167 9.11458 24.3958 10.2083 24.375 11.375C24.375 12.5417 24.3854 13.6458 24.4062 14.6875C24.4271 15.7292 24.4583 16.6354 24.5 17.4062C24.5625 18.1562 24.6458 18.6354 24.75 18.8438C24.8958 19.0938 25.0938 19.3854 25.3438 19.7188C25.5729 20.0104 25.8646 20.3438 26.2188 20.7188C26.5938 21.0938 27.0833 21.5104 27.6875 21.9688C26.7292 22.0104 25.9271 22.0417 25.2812 22.0625C24.6562 22.0833 24.1354 22.1042 23.7188 22.125C23.2396 22.1458 22.8542 22.1562 22.5625 22.1562C22.25 22.1562 21.8229 22.1667 21.2812 22.1875C20.8021 22.2083 20.1667 22.2396 19.375 22.2812C18.5833 22.3021 17.5625 22.3438 16.3125 22.4062C16.6042 22.0729 16.875 21.7396 17.125 21.4062C17.375 21.0729 17.5833 20.7708 17.75 20.5C17.9583 20.1875 18.1354 19.8854 18.2812 19.5938C18.4271 19.1979 18.5417 18.4792 18.625 17.4375C18.7083 16.5417 18.7708 15.2604 18.8125 13.5938C18.8542 11.9062 18.8542 9.64583 18.8125 6.8125C18.4167 7.45833 18.0625 8.10417 17.75 8.75C17.4583 9.375 17.1979 9.94792 16.9688 10.4688C16.7188 11.0729 16.4896 11.6562 16.2812 12.2188C16.0729 12.8021 15.8542 13.4479 15.625 14.1562C15.4167 14.7604 15.1667 15.4792 14.875 16.3125C14.6042 17.1458 14.2917 18.0625 13.9375 19.0625L12.75 19.125C12.5833 18.2917 12.4167 17.5417 12.25 16.875C12.0833 16.1875 11.9167 15.6042 11.75 15.125C11.5625 14.5625 11.375 14.0625 11.1875 13.625C10.9792 13.1875 10.75 12.6979 10.5 12.1562C10.2708 11.6979 9.98958 11.1562 9.65625 10.5312C9.34375 9.90625 8.97917 9.20833 8.5625 8.4375C8.35417 10.5625 8.22917 12.2917 8.1875 13.625C8.14583 14.9375 8.14583 15.9583 8.1875 16.6875C8.22917 17.5625 8.29167 18.1979 8.375 18.5938C8.5 18.9479 8.69792 19.3438 8.96875 19.7812C9.19792 20.1562 9.51042 20.6042 9.90625 21.125C10.3229 21.625 10.8542 22.1875 11.5 22.8125C11.0417 22.8125 10.5625 22.8125 10.0625 22.8125C9.5625 22.8125 9.10417 22.8229 8.6875 22.8438C8.1875 22.8646 7.69792 22.875 7.21875 22.875C6.71875 22.8958 6.13542 22.9271 5.46875 22.9688C4.88542 23.0104 4.1875 23.0521 3.375 23.0938C2.5625 23.1354 1.625 23.2083 0.5625 23.3125C1.02083 23.0208 1.39583 22.7396 1.6875 22.4688C1.97917 22.1771 2.20833 21.9167 2.375 21.6875C2.58333 21.4167 2.73958 21.1458 2.84375 20.875C2.90625 20.7083 2.95833 20.3438 3 19.7812C3.0625 19.2188 3.11458 18.5312 3.15625 17.7188C3.21875 16.9062 3.26042 16 3.28125 15C3.32292 14 3.35417 12.9896 3.375 11.9688C3.41667 10.9271 3.44792 9.91667 3.46875 8.9375C3.48958 7.9375 3.5 7.04167 3.5 6.25C3.52083 5.4375 3.53125 4.76042 3.53125 4.21875C3.53125 3.67708 3.53125 3.33333 3.53125 3.1875C3.46875 2.875 3.375 2.5625 3.25 2.25C3.14583 1.97917 2.97917 1.69792 2.75 1.40625C2.52083 1.11458 2.21875 0.84375 1.84375 0.59375ZM27.8438 8.625C28.3854 8.72917 28.8542 8.8125 29.25 8.875C29.6667 8.91667 30.0208 8.95833 30.3125 9C30.6458 9.04167 30.9375 9.07292 31.1875 9.09375C31.4375 9.11458 31.7292 9.13542 32.0625 9.15625C32.625 9.17708 33.4167 9.17708 34.4375 9.15625C33.8333 9.11458 33.3542 9.27083 33 9.625C32.6667 9.95833 32.4167 10.3438 32.25 10.7812C32.0417 11.3021 31.9271 11.9062 31.9062 12.5938C31.8646 13.5104 31.8854 14.3438 31.9688 15.0938C32.0729 15.8229 32.25 16.4479 32.5 16.9688C32.7708 17.4688 33.125 17.8438 33.5625 18.0938C34 18.3229 34.5625 18.3854 35.25 18.2812C35.9375 18.1771 36.4583 17.9375 36.8125 17.5625C37.1875 17.1667 37.4583 16.6875 37.625 16.125C37.7917 15.5417 37.8854 14.8854 37.9062 14.1562C37.9479 13.4271 37.9792 12.6667 38 11.875C38 11.0833 37.9896 10.5208 37.9688 10.1875C37.9688 9.83333 37.9583 9.60417 37.9375 9.5C37.9167 9.39583 37.8854 9.35417 37.8438 9.375C37.8021 9.375 37.75 9.32292 37.6875 9.21875C37.6458 9.13542 37.5833 9.05208 37.5 8.96875C37.4375 8.88542 37.3542 8.79167 37.25 8.6875C37.1458 8.5625 37.0312 8.4375 36.9062 8.3125C37.4479 8.33333 37.9271 8.35417 38.3438 8.375C38.7812 8.375 39.1458 8.38542 39.4375 8.40625C39.7708 8.42708 40.0625 8.44792 40.3125 8.46875C40.5417 8.48958 40.8438 8.52083 41.2188 8.5625C41.5312 8.60417 41.9375 8.64583 42.4375 8.6875C42.9375 8.72917 43.5312 8.79167 44.2188 8.875C43.7396 8.97917 43.3542 9.13542 43.0625 9.34375C42.7708 9.55208 42.5417 9.76042 42.375 9.96875C42.1875 10.1979 42.0521 10.4479 41.9688 10.7188C41.9062 11.0729 41.9062 11.6146 41.9688 12.3438C42.0104 12.9896 42.1146 13.875 42.2812 15C42.4479 16.125 42.7083 17.6042 43.0625 19.4375L40.5938 20.9062L40.0938 16.75C39.4896 17.7708 38.8438 18.5625 38.1562 19.125C37.4896 19.6667 36.8646 20.0625 36.2812 20.3125C35.5938 20.6042 34.9271 20.7708 34.2812 20.8125C33.4271 20.8125 32.6875 20.7604 32.0625 20.6562C31.4583 20.5312 30.9375 20.375 30.5 20.1875C30.0625 20 29.7083 19.7917 29.4375 19.5625C29.1875 19.3125 29 19.0625 28.875 18.8125C28.5833 18.2917 28.4271 17.625 28.4062 16.8125C28.3854 15.9792 28.4167 15.1562 28.5 14.3438C28.5833 13.5104 28.6771 12.75 28.7812 12.0625C28.8854 11.375 28.9167 10.9062 28.875 10.6562C28.8333 10.4688 28.7708 10.2604 28.6875 10.0312C28.6042 9.84375 28.5 9.63542 28.375 9.40625C28.25 9.15625 28.0729 8.89583 27.8438 8.625ZM58.4688 5.15625C58.2812 5.61458 58.1146 6.03125 57.9688 6.40625C57.8438 6.78125 57.7292 7.11458 57.625 7.40625C57.5208 7.73958 57.4271 8.03125 57.3438 8.28125C57.2604 8.57292 57.1667 8.90625 57.0625 9.28125C56.9583 9.61458 56.8229 10.0312 56.6562 10.5312C56.5104 11.0104 56.3333 11.5833 56.125 12.25C55.9583 11.25 55.6562 10.4583 55.2188 9.875C54.7812 9.27083 54.3333 8.80208 53.875 8.46875C53.3333 8.09375 52.75 7.82292 52.125 7.65625C51 7.46875 50.1875 7.48958 49.6875 7.71875C49.1875 7.94792 48.8542 8.23958 48.6875 8.59375C48.6042 8.73958 48.5104 8.92708 48.4062 9.15625C48.3229 9.36458 48.25 9.58333 48.1875 9.8125C48.1458 10.0417 48.1354 10.2708 48.1562 10.5C48.1771 10.7292 48.2708 10.9167 48.4375 11.0625C48.5417 11.1667 48.8125 11.3125 49.25 11.5C49.6875 11.6667 50.2083 11.8646 50.8125 12.0938C51.4375 12.3021 52.0938 12.5312 52.7812 12.7812C53.4896 13.0312 54.1562 13.2812 54.7812 13.5312C55.4062 13.7812 55.9479 14.0312 56.4062 14.2812C56.8646 14.5312 57.1667 14.7604 57.3125 14.9688C57.4375 15.1771 57.5729 15.4583 57.7188 15.8125C57.8854 16.1458 58 16.5208 58.0625 16.9375C58.1458 17.3333 58.1667 17.75 58.125 18.1875C58.1042 18.6042 57.9896 19.0208 57.7812 19.4375C57.5729 19.8542 57.2396 20.2396 56.7812 20.5938C56.3438 20.9479 55.75 21.2396 55 21.4688C54.125 21.7396 53.2812 21.8125 52.4688 21.6875C51.6562 21.5625 50.9062 21.375 50.2188 21.125C49.5521 20.875 48.9688 20.6354 48.4688 20.4062C47.9688 20.1562 47.6146 20.0521 47.4062 20.0938C47.1771 20.1354 46.9167 20.25 46.625 20.4375C46.3333 20.625 46.0521 20.8229 45.7812 21.0312C45.5312 21.2188 45.3125 21.3958 45.125 21.5625C44.9375 21.7083 44.8438 21.7604 44.8438 21.7188C44.8438 21.6771 44.875 21.5521 44.9375 21.3438C45.0208 21.1354 45.1042 20.8854 45.1875 20.5938C45.2917 20.2812 45.3854 19.9479 45.4688 19.5938C45.5729 19.2188 45.6458 18.8646 45.6875 18.5312C45.7292 18.2604 45.7812 17.9271 45.8438 17.5312C45.8854 17.1771 45.9375 16.75 46 16.25C46.0833 15.7292 46.1771 15.1042 46.2812 14.375C46.3854 14.9167 46.5312 15.3854 46.7188 15.7812C46.9271 16.1771 47.125 16.5208 47.3125 16.8125C47.5417 17.1458 47.7604 17.4271 47.9688 17.6562C48.2812 17.9479 48.6458 18.2188 49.0625 18.4688C49.5 18.7188 49.9375 18.9375 50.375 19.125C50.8125 19.2917 51.2292 19.3958 51.625 19.4375C52.0208 19.4792 52.3542 19.4375 52.625 19.3125C52.8958 19.1875 53.125 18.9583 53.3125 18.625C53.5208 18.2917 53.6667 17.9271 53.75 17.5312C53.8333 17.1354 53.8646 16.7604 53.8438 16.4062C53.8229 16.0312 53.7292 15.7292 53.5625 15.5C53.4375 15.3542 53.1458 15.1667 52.6875 14.9375C52.25 14.7083 51.7188 14.4583 51.0938 14.1875C50.4896 13.9167 49.8438 13.6354 49.1562 13.3438C48.4896 13.0521 47.8542 12.7604 47.25 12.4688C46.6667 12.1562 46.1771 11.8646 45.7812 11.5938C45.4062 11.3021 45.1979 11.0417 45.1562 10.8125C45.1146 10.4792 45.0833 10.1146 45.0625 9.71875C45.0417 9.30208 45.0625 8.89583 45.125 8.5C45.2083 8.08333 45.3542 7.6875 45.5625 7.3125C45.7917 6.9375 46.125 6.625 46.5625 6.375C46.8542 6.20833 47.2396 6.08333 47.7188 6C48.1979 5.91667 48.7292 5.875 49.3125 5.875C49.8958 5.85417 50.5 5.875 51.125 5.9375C51.75 5.97917 52.3438 6.04167 52.9062 6.125C53.4896 6.1875 54.0104 6.27083 54.4688 6.375C54.9479 6.47917 55.3125 6.57292 55.5625 6.65625C55.8542 6.76042 56.1667 6.77083 56.5 6.6875C56.7917 6.625 57.1042 6.48958 57.4375 6.28125C57.7708 6.07292 58.1146 5.69792 58.4688 5.15625ZM59.2188 3.3125C59.8438 3.375 60.3646 3.42708 60.7812 3.46875C61.2188 3.51042 61.5729 3.54167 61.8438 3.5625C62.1562 3.58333 62.4062 3.59375 62.5938 3.59375C62.7812 3.61458 63.0312 3.61458 63.3438 3.59375C63.6146 3.57292 63.9688 3.55208 64.4062 3.53125C64.8438 3.48958 65.3958 3.42708 66.0625 3.34375C65.9167 3.55208 65.8021 3.73958 65.7188 3.90625C65.6354 4.05208 65.5625 4.1875 65.5 4.3125L65.3125 4.6875C65.2708 4.8125 65.2292 4.9375 65.1875 5.0625C65.1458 5.16667 65.1042 5.29167 65.0625 5.4375C65.0417 5.58333 65.0208 5.73958 65 5.90625H69.8125L69.375 8.4375L64.9688 8.1875C64.8646 9.25 64.7917 10.0729 64.75 10.6562C64.7083 11.2396 64.6667 11.6667 64.625 11.9375L64.5625 12.5C64.5 13.2917 64.4375 14.1562 64.375 15.0938C64.3125 16.0104 64.2917 16.8646 64.3125 17.6562C64.3333 18.4479 64.4062 19.1146 64.5312 19.6562C64.6562 20.1771 64.875 20.4375 65.1875 20.4375C65.5 20.4375 65.7917 20.3542 66.0625 20.1875C66.3333 20.0208 66.5625 19.8229 66.75 19.5938C66.9583 19.3646 67.1146 19.1354 67.2188 18.9062C67.3229 18.6562 67.375 18.4688 67.375 18.3438C67.375 18.2188 67.3438 18.0729 67.2812 17.9062C67.1771 17.5938 66.9896 17.1979 66.7188 16.7188C67.3229 16.8646 67.8542 17.0104 68.3125 17.1562C68.5417 17.2396 68.75 17.3229 68.9375 17.4062C69.1458 17.4896 69.3854 17.5833 69.6562 17.6875C69.8854 17.7917 70.1771 17.9167 70.5312 18.0625C70.8854 18.2083 71.3021 18.3854 71.7812 18.5938C71.3229 18.6771 70.9896 18.8125 70.7812 19C70.6562 19.0833 70.5625 19.1771 70.5 19.2812C70.3542 19.5104 70.1875 19.8229 70 20.2188C69.8125 20.5938 69.5312 20.9688 69.1562 21.3438C68.7812 21.7188 68.2708 22.0521 67.625 22.3438C67 22.6354 66.1562 22.8021 65.0938 22.8438C63.9896 22.8854 63.1458 22.6979 62.5625 22.2812C62 21.8646 61.5833 21.3854 61.3125 20.8438C61.0625 20.2812 60.9167 19.7292 60.875 19.1875C60.8333 18.6458 60.8021 18.2812 60.7812 18.0938C60.7604 17.9062 60.7604 17.4375 60.7812 16.6875C60.8021 15.9375 60.8333 15.1146 60.875 14.2188C60.9167 13.3021 60.9583 12.4271 61 11.5938C61.0417 10.7396 61.0625 10.1146 61.0625 9.71875C61.0625 9.51042 61.0729 9.29167 61.0938 9.0625C61.0938 8.875 61.0938 8.67708 61.0938 8.46875C61.1146 8.23958 61.125 8.02083 61.125 7.8125L56.5938 7.78125L56.4062 6L60.9688 6.125C60.9271 5.89583 60.875 5.6875 60.8125 5.5C60.7708 5.29167 60.7292 5.125 60.6875 5C60.625 4.85417 60.5625 4.72917 60.5 4.625C60.4167 4.52083 60.3229 4.40625 60.2188 4.28125C60.1146 4.17708 59.9792 4.04167 59.8125 3.875C59.6458 3.70833 59.4479 3.52083 59.2188 3.3125ZM72.8438 10.3438C72.9479 10.2188 73.0104 9.98958 73.0312 9.65625C73.0729 9.30208 73.1562 8.90625 73.2812 8.46875C73.4271 8.03125 73.6667 7.57292 74 7.09375C74.3333 6.61458 74.875 6.16667 75.625 5.75C76.3542 5.33333 77.0625 5.08333 77.75 5C78.4375 4.91667 79.0938 4.94792 79.7188 5.09375C80.3438 5.23958 80.9271 5.46875 81.4688 5.78125C82.0312 6.09375 82.5417 6.4375 83 6.8125C83.3125 7.0625 83.5625 7.42708 83.75 7.90625C83.9375 8.36458 84.0833 8.88542 84.1875 9.46875C84.2917 10.0521 84.3646 10.6667 84.4062 11.3125C84.4688 11.9375 84.5104 12.5521 84.5312 13.1562C84.5521 13.7396 84.5625 14.2812 84.5625 14.7812C84.5833 15.2604 84.625 15.6562 84.6875 15.9688C84.7708 16.4271 84.9167 16.8229 85.125 17.1562C85.3333 17.4688 85.5625 17.7396 85.8125 17.9688C86.0625 18.1771 86.3125 18.3438 86.5625 18.4688C86.8125 18.5938 87.0312 18.6875 87.2188 18.75C87.3438 18.8125 87.4583 18.8542 87.5625 18.875C87.7708 18.9583 87.9167 18.9583 88 18.875C87.875 19.1667 87.7604 19.4167 87.6562 19.625C87.5521 19.8333 87.4688 20.0104 87.4062 20.1562C87.3229 20.3229 87.25 20.4583 87.1875 20.5625C87.125 20.6875 87.0521 20.8021 86.9688 20.9062C86.9062 21.0104 86.8229 21.125 86.7188 21.25C86.6146 21.375 86.5104 21.5104 86.4062 21.6562C86.1354 21.5521 85.875 21.4271 85.625 21.2812C85.3958 21.1354 85.1875 21 85 20.875C84.7708 20.7292 84.5625 20.5833 84.375 20.4375C84.1875 20.2917 84.0104 20.125 83.8438 19.9375C83.6979 19.7708 83.5417 19.5938 83.375 19.4062C83.2292 19.2188 83.1042 19.0104 83 18.7812C82.875 19.0521 82.5729 19.4375 82.0938 19.9375C81.6354 20.4375 81.0312 20.8958 80.2812 21.3125C79.5312 21.7083 78.6562 21.9896 77.6562 22.1562C76.6771 22.3229 75.5938 22.2083 74.4062 21.8125C73.8854 21.6458 73.3958 21.4062 72.9375 21.0938C72.4792 20.7604 72.0833 20.3646 71.75 19.9062C71.4375 19.4479 71.2083 18.9271 71.0625 18.3438C70.9375 17.7396 70.9479 17.0729 71.0938 16.3438C71.2396 15.6146 71.5 15 71.875 14.5C72.25 14 72.6979 13.5938 73.2188 13.2812C73.7396 12.9688 74.3229 12.7292 74.9688 12.5625C75.6146 12.3958 76.2812 12.2812 76.9688 12.2188C77.5104 12.1979 78.0521 12.2292 78.5938 12.3125C79.0521 12.3958 79.5312 12.5521 80.0312 12.7812C80.5312 12.9896 80.9583 13.3125 81.3125 13.75C81.2917 12.6458 81.25 11.7708 81.1875 11.125C81.1458 10.4583 81.1042 9.94792 81.0625 9.59375C80.9792 9.17708 80.9062 8.88542 80.8438 8.71875C80.7396 8.57292 80.625 8.40625 80.5 8.21875C80.3958 8.03125 80.2604 7.86458 80.0938 7.71875C79.9271 7.55208 79.7188 7.41667 79.4688 7.3125C79.2188 7.20833 78.9271 7.16667 78.5938 7.1875C78.2396 7.20833 77.9583 7.30208 77.75 7.46875C77.5417 7.63542 77.375 7.83333 77.25 8.0625C77.1458 8.27083 77.0833 8.5 77.0625 8.75C77.0417 9 77.0521 9.21875 77.0938 9.40625C77.1354 9.53125 77.1979 9.66667 77.2812 9.8125C77.3646 9.9375 77.4792 10.0729 77.625 10.2188C77.7708 10.3646 77.9688 10.4896 78.2188 10.5938C77.7396 10.6562 77.3125 10.7083 76.9375 10.75C76.5625 10.7708 76.2396 10.8021 75.9688 10.8438C75.6562 10.8854 75.3854 10.9167 75.1562 10.9375C74.9271 10.9583 74.6562 11 74.3438 11.0625C74.0729 11.1042 73.7396 11.1562 73.3438 11.2188C72.9479 11.2812 72.4896 11.3646 71.9688 11.4688C72.0938 11.3229 72.2083 11.1875 72.3125 11.0625C72.4167 10.9167 72.5104 10.7917 72.5938 10.6875C72.6771 10.5625 72.7604 10.4479 72.8438 10.3438ZM77.5312 14.0625C77.1562 14.0833 76.7812 14.1771 76.4062 14.3438C76.0312 14.4896 75.6979 14.7083 75.4062 15C75.1146 15.2708 74.8646 15.5938 74.6562 15.9688C74.4688 16.3229 74.375 16.7188 74.375 17.1562C74.375 17.5938 74.4792 17.9792 74.6875 18.3125C74.9167 18.625 75.2083 18.8854 75.5625 19.0938C75.9375 19.3021 76.3333 19.4271 76.75 19.4688C77.1875 19.5104 77.6146 19.4688 78.0312 19.3438C78.4271 19.1979 78.8021 18.9688 79.1562 18.6562C79.5104 18.3229 79.8125 17.9688 80.0625 17.5938C80.3125 17.1979 80.4896 16.8125 80.5938 16.4375C80.6979 16.0417 80.7083 15.7188 80.625 15.4688C80.4583 14.9271 80.0833 14.5521 79.5 14.3438C78.9167 14.1146 78.2604 14.0208 77.5312 14.0625ZM88.6562 19.5625C88.8021 18.875 88.9062 18.2708 88.9688 17.75C89.0521 17.2083 89.1146 16.7604 89.1562 16.4062C89.1979 15.9896 89.2188 15.6354 89.2188 15.3438C89.1979 14.9896 89.1771 14.5729 89.1562 14.0938C89.1562 13.5938 89.1354 13.1042 89.0938 12.625C89.0729 12.125 89.0417 11.6875 89 11.3125C88.9583 10.9167 88.9062 10.6354 88.8438 10.4688C88.7604 10.3021 88.6458 10.125 88.5 9.9375C88.2083 9.58333 87.7812 9.23958 87.2188 8.90625C87.6979 8.80208 88.1042 8.71875 88.4375 8.65625C88.7917 8.57292 89.0833 8.5 89.3125 8.4375C89.5625 8.35417 89.7812 8.28125 89.9688 8.21875C90.1354 8.15625 90.3333 8.09375 90.5625 8.03125C90.75 7.98958 90.9792 7.9375 91.25 7.875C91.5208 7.8125 91.8333 7.73958 92.1875 7.65625L92.0938 10.5C92.7604 9.70833 93.4375 9.11458 94.125 8.71875C94.8125 8.32292 95.4583 8.04167 96.0625 7.875C96.75 7.66667 97.4271 7.5625 98.0938 7.5625C98.9271 7.60417 99.6979 7.73958 100.406 7.96875C101.135 8.19792 101.76 8.46875 102.281 8.78125C102.823 9.07292 103.26 9.38542 103.594 9.71875C103.927 10.0521 104.125 10.3438 104.188 10.5938C104.438 11.4062 104.5 12.1562 104.375 12.8438C104.25 13.5104 104.083 14.1667 103.875 14.8125C103.688 15.4375 103.521 16.0625 103.375 16.6875C103.25 17.3125 103.302 17.9896 103.531 18.7188C103.615 18.9062 103.698 19.0938 103.781 19.2812C103.865 19.4479 103.969 19.6146 104.094 19.7812C104.219 19.9479 104.365 20.0833 104.531 20.1875C104.302 20.1667 104.073 20.1562 103.844 20.1562C103.615 20.1354 103.406 20.1146 103.219 20.0938C102.99 20.0729 102.781 20.0521 102.594 20.0312C102.385 20.0104 102.104 20 101.75 20C101.146 20 100.208 20.0312 98.9375 20.0938C99.125 19.6562 99.2708 19.2917 99.375 19C99.5 18.6875 99.6042 18.4375 99.6875 18.25C99.7708 18.0208 99.8333 17.8438 99.875 17.7188C100.125 17.1146 100.271 16.4271 100.312 15.6562C100.375 14.8854 100.323 14.1042 100.156 13.3125C100.094 13.0417 99.9896 12.7188 99.8438 12.3438C99.6979 11.9688 99.5 11.6042 99.25 11.25C99.0208 10.8958 98.7396 10.5938 98.4062 10.3438C98.0938 10.0938 97.7292 9.94792 97.3125 9.90625C96.8958 9.86458 96.4271 9.96875 95.9062 10.2188C95.4062 10.4688 94.8646 10.9271 94.2812 11.5938C93.8438 12.1562 93.5 12.8438 93.25 13.6562C93.0208 14.3438 92.8646 15.2083 92.7812 16.25C92.6979 17.2708 92.8229 18.4688 93.1562 19.8438C92.8646 19.8021 92.5938 19.7812 92.3438 19.7812C92.0938 19.7604 91.8854 19.7396 91.7188 19.7188C91.5104 19.6979 91.3229 19.6771 91.1562 19.6562C90.9688 19.6562 90.7604 19.6458 90.5312 19.625C90.3229 19.625 90.0625 19.625 89.75 19.625C89.4375 19.6042 89.0729 19.5833 88.6562 19.5625ZM121.188 9.75C121.125 9.33333 121.073 8.98958 121.031 8.71875C120.99 8.42708 120.948 8.19792 120.906 8.03125C120.865 7.82292 120.833 7.66667 120.812 7.5625C120.771 7.45833 120.719 7.34375 120.656 7.21875C120.615 7.11458 120.542 6.98958 120.438 6.84375C120.354 6.69792 120.25 6.53125 120.125 6.34375C120.396 6.42708 120.667 6.47917 120.938 6.5C121.229 6.52083 121.5 6.54167 121.75 6.5625C122.021 6.58333 122.302 6.58333 122.594 6.5625C122.885 6.5625 123.219 6.55208 123.594 6.53125C123.927 6.51042 124.323 6.5 124.781 6.5C125.26 6.47917 125.802 6.44792 126.406 6.40625C126.052 6.48958 125.75 6.63542 125.5 6.84375C125.271 7.03125 125.073 7.23958 124.906 7.46875C124.719 7.71875 124.562 7.98958 124.438 8.28125C124.333 8.55208 124.271 9.07292 124.25 9.84375C124.229 10.5938 124.229 11.4896 124.25 12.5312C124.271 13.5521 124.292 14.6562 124.312 15.8438C124.354 17.0312 124.375 18.1667 124.375 19.25C124.396 20.3333 124.396 21.3229 124.375 22.2188C124.354 23.0938 124.302 23.7396 124.219 24.1562C123.927 25.4688 123.385 26.5312 122.594 27.3438C121.802 28.1771 120.76 28.625 119.469 28.6875C117.906 28.75 116.667 28.6042 115.75 28.25C114.854 27.8958 114.156 27.4583 113.656 26.9375C113.156 26.4375 112.781 25.9271 112.531 25.4062C112.281 24.8854 112.021 24.4896 111.75 24.2188C111.5 23.9896 111.25 23.7708 111 23.5625C110.771 23.3958 110.531 23.2292 110.281 23.0625C110.052 22.8958 109.823 22.7917 109.594 22.75C110.198 22.7708 110.74 22.7812 111.219 22.7812C111.698 22.7812 112.104 22.7812 112.438 22.7812C112.812 22.7812 113.146 22.7708 113.438 22.75H114.438H117.281C116.865 22.875 116.552 23.0104 116.344 23.1562C116.135 23.3229 115.99 23.4896 115.906 23.6562C115.823 23.8438 115.781 24.0312 115.781 24.2188C115.865 24.7188 116.135 25.0833 116.594 25.3125C117.052 25.5417 117.677 25.6771 118.469 25.7188C119.24 25.7604 119.771 25.7396 120.062 25.6562C120.354 25.5938 120.583 25.4688 120.75 25.2812C121.083 24.7812 121.365 24.1354 121.594 23.3438C121.76 22.6771 121.875 21.8125 121.938 20.75C122.021 19.6667 121.927 18.3438 121.656 16.7812C120.99 17.6979 120.219 18.3854 119.344 18.8438C118.469 19.3021 117.635 19.6354 116.844 19.8438C115.906 20.0729 114.958 20.1875 114 20.1875C111.479 20.0833 109.594 19.5 108.344 18.4375C107.094 17.375 106.521 15.9479 106.625 14.1562C106.688 13.2604 106.958 12.3646 107.438 11.4688C107.938 10.5729 108.583 9.77083 109.375 9.0625C110.188 8.35417 111.115 7.79167 112.156 7.375C113.198 6.95833 114.281 6.78125 115.406 6.84375C116.26 6.92708 117.062 7.08333 117.812 7.3125C118.458 7.52083 119.094 7.8125 119.719 8.1875C120.365 8.5625 120.854 9.08333 121.188 9.75ZM111.25 12.875C111.125 13.6875 111.177 14.4479 111.406 15.1562C111.656 15.8646 112 16.4792 112.438 17C112.875 17.5 113.365 17.8958 113.906 18.1875C114.448 18.4583 114.958 18.5833 115.438 18.5625C116.438 18.5417 117.302 18.0938 118.031 17.2188C118.76 16.3229 119.198 14.9896 119.344 13.2188C119.406 12.3438 119.292 11.5938 119 10.9688C118.729 10.3229 118.385 9.80208 117.969 9.40625C117.552 9.01042 117.115 8.72917 116.656 8.5625C116.198 8.39583 115.833 8.32292 115.562 8.34375C115.188 8.38542 114.771 8.5 114.312 8.6875C113.875 8.85417 113.448 9.11458 113.031 9.46875C112.615 9.80208 112.24 10.25 111.906 10.8125C111.594 11.375 111.375 12.0625 111.25 12.875Z" fill="black"/>
</svg>
